# xmcd
#
# Track frame offsets: 
#        150
#        19298
#        37803
#        58239
#        73174
#        89350
#        105977
#        123400
#        143219
#        157146
#        167210
#        188005
#        205684
#
# Disc length: 2884 seconds
#
# Revision: 0
# Processed by: cddbd v1.5.2PL0 Copyright (c) Steve Scherf et al.
# Submitted via: ExactAudioCopy v0.99pb3
#
DISCID=b50b420d
DTITLE=Rocky Zharp and RZB - Songs For You And A Song For Me
DYEAR=1996
DGENRE=Blues
TTITLE0=Song For Me
TTITLE1=Nothen's Getten Said
TTITLE2=Ms. Suzy
TTITLE3=MFHJ
TTITLE4=All Ready Over You
TTITLE5=He's A Hunter
TTITLE6=Yes It's True
TTITLE7=Cornfield Boogie
TTITLE8=Granny's Boogie
TTITLE9=Everyday Of My Life
TTITLE10=Raccoon Blues
TTITLE11=I'm Dead
TTITLE12=Little Girl Lost
EXTD=
EXTT0=
EXTT1=
EXTT2=
EXTT3=
EXTT4=
EXTT5=
EXTT6=
EXTT7=
EXTT8=
EXTT9=
EXTT10=
EXTT11=
EXTT12=
PLAYORDER=
